# MagicaVoxel @ Ephtracy

# group
g Plain_01

# material
mtllib Plain_01.mtl
usemtl palette

# normals
vn -1 0 0
vn 1 0 0
vn 0 0 1
vn 0 0 -1
vn 0 -1 0
vn 0 1 0

# texcoords
vt 0.533203 0.5
vt 0.626953 0.5

# verts
v -8 0 8
v -8 0 -8
v -8 15 8
v -8 15 5
v -8 16 8
v -8 16 5
v -8 16 -8
v 8 0 8
v 8 0 -8
v 8 15 -6
v 8 15 -8
v 8 16 8
v 8 16 -6
v 8 16 -8
v -8 0 8
v -8 15 8
v -8 16 8
v -4 15 8
v -4 16 8
v 8 0 8
v 8 16 8
v -8 0 -8
v -8 16 -8
v 5 15 -8
v 5 16 -8
v 8 0 -8
v 8 15 -8
v 8 16 -8
v -8 0 8
v 8 0 8
v -8 0 -8
v 8 0 -8
v -8 16 8
v -4 16 8
v 8 16 8
v 3 16 7
v 6 16 7
v -5 16 6
v -4 16 6
v 1 16 6
v 3 16 6
v -8 16 5
v -5 16 5
v 6 16 4
v 7 16 4
v -6 16 3
v -3 16 3
v 1 16 3
v 3 16 3
v 4 16 3
v 5 16 3
v 6 16 3
v 7 16 3
v -7 16 2
v -6 16 2
v -3 16 2
v -2 16 2
v 1 16 2
v 2 16 2
v 3 16 2
v 4 16 2
v 6 16 2
v 7 16 2
v -4 16 1
v -3 16 1
v 0 16 1
v 1 16 1
v 5 16 1
v 6 16 1
v 1 16 -0
v 2 16 -0
v 6 16 -0
v 7 16 -0
v -4 16 -1
v -3 16 -1
v -6 16 -2
v -5 16 -2
v -3 16 -2
v -2 16 -2
v -1 16 -2
v 0 16 -2
v 3 16 -2
v 5 16 -2
v -7 16 -3
v -6 16 -3
v -5 16 -3
v -3 16 -3
v -2 16 -3
v -1 16 -3
v 0 16 -3
v 1 16 -3
v 2 16 -3
v 3 16 -3
v -2 16 -4
v 0 16 -4
v 2 16 -6
v 3 16 -6
v 7 16 -6
v 8 16 -6
v 3 16 -7
v 5 16 -7
v 7 16 -7
v -8 16 -8
v 5 16 -8
v 8 16 -8

# faces
f 3/2/1 2/2/1 1/2/1
f 4/2/1 2/2/1 3/2/1
f 5/1/1 4/1/1 3/1/1
f 6/2/1 2/2/1 4/2/1
f 6/1/1 4/1/1 5/1/1
f 7/2/1 2/2/1 6/2/1
f 8/2/2 9/2/2 10/2/2
f 10/2/2 9/2/2 11/2/2
f 8/2/2 10/2/2 12/2/2
f 10/1/2 11/1/2 13/1/2
f 12/2/2 10/2/2 13/2/2
f 13/1/2 11/1/2 14/1/2
f 18/2/3 16/2/3 15/2/3
f 18/1/3 17/1/3 16/1/3
f 19/1/3 17/1/3 18/1/3
f 20/2/3 18/2/3 15/2/3
f 20/2/3 19/2/3 18/2/3
f 21/2/3 19/2/3 20/2/3
f 22/2/4 23/2/4 24/2/4
f 24/2/4 23/2/4 25/2/4
f 22/2/4 24/2/4 26/2/4
f 24/1/4 25/1/4 27/1/4
f 26/2/4 24/2/4 27/2/4
f 27/1/4 25/1/4 28/1/4
f 31/2/5 30/2/5 29/2/5
f 32/2/5 30/2/5 31/2/5
f 34/2/6 35/2/6 36/2/6
f 36/2/6 35/2/6 37/2/6
f 33/1/6 34/1/6 38/1/6
f 34/2/6 36/2/6 39/2/6
f 38/1/6 34/1/6 39/1/6
f 39/2/6 36/2/6 40/2/6
f 36/1/6 37/1/6 41/1/6
f 40/2/6 36/2/6 41/2/6
f 33/1/6 38/1/6 42/1/6
f 39/2/6 40/2/6 43/2/6
f 42/1/6 38/1/6 43/1/6
f 38/2/6 39/2/6 43/2/6
f 37/2/6 35/2/6 44/2/6
f 41/1/6 37/1/6 44/1/6
f 40/1/6 41/1/6 44/1/6
f 44/2/6 35/2/6 45/2/6
f 42/2/6 43/2/6 46/2/6
f 43/2/6 40/2/6 47/2/6
f 46/2/6 43/2/6 47/2/6
f 40/1/6 44/1/6 48/1/6
f 47/2/6 40/2/6 48/2/6
f 44/1/6 45/1/6 48/1/6
f 48/1/6 45/1/6 49/1/6
f 49/1/6 45/1/6 50/1/6
f 50/1/6 45/1/6 51/1/6
f 51/1/6 45/1/6 52/1/6
f 45/2/6 35/2/6 53/2/6
f 52/1/6 45/1/6 53/1/6
f 42/2/6 46/2/6 54/2/6
f 46/1/6 47/1/6 55/1/6
f 54/2/6 46/2/6 55/2/6
f 47/2/6 48/2/6 56/2/6
f 55/1/6 47/1/6 56/1/6
f 48/2/6 49/2/6 56/2/6
f 56/2/6 49/2/6 57/2/6
f 57/2/6 49/2/6 58/2/6
f 58/2/6 49/2/6 59/2/6
f 49/1/6 50/1/6 60/1/6
f 59/2/6 49/2/6 60/2/6
f 50/2/6 51/2/6 61/2/6
f 60/1/6 50/1/6 61/1/6
f 51/1/6 52/1/6 62/1/6
f 52/2/6 53/2/6 62/2/6
f 53/2/6 35/2/6 63/2/6
f 62/2/6 53/2/6 63/2/6
f 54/1/6 55/1/6 64/1/6
f 55/1/6 56/1/6 64/1/6
f 56/1/6 57/1/6 64/1/6
f 64/1/6 57/1/6 65/1/6
f 57/2/6 58/2/6 66/2/6
f 58/1/6 59/1/6 67/1/6
f 66/2/6 58/2/6 67/2/6
f 51/1/6 62/1/6 68/1/6
f 61/2/6 51/2/6 68/2/6
f 60/2/6 61/2/6 68/2/6
f 59/2/6 60/2/6 68/2/6
f 62/1/6 63/1/6 68/1/6
f 68/1/6 63/1/6 69/1/6
f 67/1/6 59/1/6 70/1/6
f 66/1/6 67/1/6 70/1/6
f 68/2/6 69/2/6 71/2/6
f 70/1/6 59/1/6 71/1/6
f 59/2/6 68/2/6 71/2/6
f 69/1/6 63/1/6 72/1/6
f 71/2/6 69/2/6 72/2/6
f 63/2/6 35/2/6 73/2/6
f 72/1/6 63/1/6 73/1/6
f 64/2/6 65/2/6 74/2/6
f 54/1/6 64/1/6 74/1/6
f 65/1/6 57/1/6 75/1/6
f 74/2/6 65/2/6 75/2/6
f 54/1/6 74/1/6 76/1/6
f 74/1/6 75/1/6 76/1/6
f 76/1/6 75/1/6 77/1/6
f 75/1/6 57/1/6 78/1/6
f 77/1/6 75/1/6 78/1/6
f 57/2/6 66/2/6 79/2/6
f 78/1/6 57/1/6 79/1/6
f 79/2/6 66/2/6 80/2/6
f 66/1/6 70/1/6 81/1/6
f 80/2/6 66/2/6 81/2/6
f 70/2/6 71/2/6 82/2/6
f 71/2/6 72/2/6 82/2/6
f 72/2/6 73/2/6 82/2/6
f 82/2/6 73/2/6 83/2/6
f 42/2/6 54/2/6 84/2/6
f 54/1/6 76/1/6 84/1/6
f 76/2/6 77/2/6 85/2/6
f 84/1/6 76/1/6 85/1/6
f 77/1/6 78/1/6 86/1/6
f 85/2/6 77/2/6 86/2/6
f 79/2/6 80/2/6 87/2/6
f 86/1/6 78/1/6 87/1/6
f 78/2/6 79/2/6 87/2/6
f 87/2/6 80/2/6 88/2/6
f 80/1/6 81/1/6 89/1/6
f 88/2/6 80/2/6 89/2/6
f 81/1/6 70/1/6 90/1/6
f 89/1/6 81/1/6 90/1/6
f 70/2/6 82/2/6 91/2/6
f 90/1/6 70/1/6 91/1/6
f 91/2/6 82/2/6 92/2/6
f 82/1/6 83/1/6 93/1/6
f 92/2/6 82/2/6 93/2/6
f 88/1/6 89/1/6 94/1/6
f 85/2/6 86/2/6 94/2/6
f 87/2/6 88/2/6 94/2/6
f 84/2/6 85/2/6 94/2/6
f 86/2/6 87/2/6 94/2/6
f 89/1/6 90/1/6 94/1/6
f 90/2/6 91/2/6 95/2/6
f 94/1/6 90/1/6 95/1/6
f 91/2/6 92/2/6 95/2/6
f 92/1/6 93/1/6 96/1/6
f 95/2/6 92/2/6 96/2/6
f 94/2/6 95/2/6 96/2/6
f 93/1/6 83/1/6 97/1/6
f 96/1/6 93/1/6 97/1/6
f 83/2/6 73/2/6 98/2/6
f 73/2/6 35/2/6 98/2/6
f 98/2/6 35/2/6 99/2/6
f 97/1/6 83/1/6 100/1/6
f 96/2/6 97/2/6 100/2/6
f 83/2/6 98/2/6 101/2/6
f 100/1/6 83/1/6 101/1/6
f 98/1/6 99/1/6 102/1/6
f 101/2/6 98/2/6 102/2/6
f 94/2/6 96/2/6 103/2/6
f 42/2/6 84/2/6 103/2/6
f 84/2/6 94/2/6 103/2/6
f 96/2/6 100/2/6 103/2/6
f 100/2/6 101/2/6 103/2/6
f 101/1/6 102/1/6 104/1/6
f 103/2/6 101/2/6 104/2/6
f 102/1/6 99/1/6 105/1/6
f 104/1/6 102/1/6 105/1/6
